<svg width="126" height="34" viewBox="0 0 126 34" fill="none" xmlns="http://www.w3.org/2000/svg">
<path d="M28.4053 0.154297C29.2061 0.154297 29.958 0.305664 30.6611 0.608398C31.3643 0.911133 31.9746 1.32617 32.4922 1.85352C33.0195 2.38086 33.4346 2.99609 33.7373 3.69922C34.04 4.40234 34.1914 5.1543 34.1914 5.95508C34.1914 6.72656 34.0449 7.45898 33.752 8.15234C33.4688 8.8457 33.0537 9.4707 32.5068 10.0273L27.5117 15.0518C27.707 15.1299 27.873 15.2178 28.0098 15.3154C28.1562 15.4131 28.3076 15.5303 28.4639 15.667C28.6689 15.8428 28.8594 16.0283 29.0352 16.2236C29.2207 16.4092 29.3818 16.6094 29.5186 16.8242C29.6553 17.0293 29.7627 17.2539 29.8408 17.498C29.9287 17.7324 29.9727 17.9912 29.9727 18.2744C29.9727 18.5869 29.9287 18.8652 29.8408 19.1094C29.7627 19.3535 29.6504 19.5781 29.5039 19.7832C29.3574 19.9883 29.1865 20.1885 28.9912 20.3838C28.8057 20.5693 28.6055 20.7549 28.3906 20.9404L31.6279 33.8457H22.3555C21.6133 32.3125 20.8613 30.7939 20.0996 29.29C19.3379 27.7959 18.5762 26.2871 17.8145 24.7637L16.291 26.2871V33.8457H10.7832C10.4902 33.2598 10.1973 32.6787 9.9043 32.1025C9.61133 31.5264 9.32324 30.9453 9.04004 30.3594C8.84473 30.4473 8.64453 30.5303 8.43945 30.6084C8.23438 30.6963 8.04883 30.8037 7.88281 30.9307C7.69727 31.0674 7.53613 31.2188 7.39941 31.3848C7.2627 31.5508 7.11133 31.7119 6.94531 31.8682C6.31055 32.4834 5.56348 32.791 4.7041 32.791C4.27441 32.791 3.86426 32.708 3.47363 32.542C3.09277 32.376 2.76074 32.1514 2.47754 31.8682C2.19434 31.585 1.96973 31.248 1.80371 30.8574C1.6377 30.4766 1.55469 30.0713 1.55469 29.6416C1.55469 28.792 1.8623 28.0449 2.47754 27.4004C2.63379 27.2344 2.79492 27.083 2.96094 26.9463C3.12695 26.7998 3.27832 26.6387 3.41504 26.4629C3.54199 26.2969 3.64453 26.1113 3.72266 25.9062C3.81055 25.7012 3.89844 25.501 3.98633 25.3057C3.40039 25.0225 2.81934 24.7344 2.24316 24.4414C1.66699 24.1484 1.08594 23.8555 0.5 23.5625V18.0547H8.05859L9.58203 16.5312C8.05859 15.7695 6.54492 15.0078 5.04102 14.2461C3.54688 13.4844 2.0332 12.7324 0.5 11.9902V2.71777L13.4053 5.95508C13.5908 5.74023 13.7764 5.54004 13.9619 5.35449C14.1572 5.15918 14.3574 4.98828 14.5625 4.8418C14.7676 4.69531 14.9922 4.58301 15.2363 4.50488C15.4805 4.41699 15.7588 4.37305 16.0713 4.37305C16.3545 4.37305 16.6133 4.41699 16.8477 4.50488C17.0918 4.58301 17.3164 4.69043 17.5215 4.82715C17.7363 4.96387 17.9365 5.125 18.1221 5.31055C18.3174 5.48633 18.5029 5.67676 18.6787 5.88184C18.8154 6.03809 18.9326 6.18945 19.0303 6.33594C19.1279 6.47266 19.2158 6.63867 19.2939 6.83398L24.3037 1.85352C25.4365 0.720703 26.8037 0.154297 28.4053 0.154297ZM12.6143 23.8408C12.6143 24.124 12.5557 24.3975 12.4385 24.6611C12.3311 24.915 12.1797 25.1396 11.9844 25.335L9.61133 27.708L12.6582 26.1846C12.9121 26.0576 13.1709 25.9404 13.4346 25.833C13.6982 25.7256 13.9473 25.5889 14.1816 25.4229C14.4062 25.2666 14.6016 25.0859 14.7676 24.8809C14.9434 24.6758 15.1289 24.4756 15.3242 24.2803C15.832 23.7529 16.3398 23.2402 16.8477 22.7422C17.3652 22.2344 17.8779 21.7217 18.3857 21.2041L26.9258 12.6348C27.5996 11.9512 28.2783 11.2725 28.9619 10.5986C29.6455 9.9248 30.3242 9.24121 30.998 8.54785C31.3398 8.18652 31.6035 7.7959 31.7891 7.37598C31.9844 6.95605 32.082 6.49219 32.082 5.98438C32.082 5.4375 31.9893 4.94434 31.8037 4.50488C31.6182 4.05566 31.3594 3.6748 31.0273 3.3623C30.7051 3.04004 30.3145 2.79102 29.8555 2.61523C29.4062 2.43945 28.9131 2.35156 28.376 2.35156C27.8975 2.35156 27.4336 2.42969 26.9844 2.58594C26.5352 2.74219 26.1396 2.99121 25.7979 3.33301C23.6787 5.45215 21.5742 7.56152 19.4844 9.66113C17.3945 11.751 15.2803 13.8457 13.1416 15.9453C12.6143 16.4531 12.0967 16.9658 11.5889 17.4834C11.0908 18.001 10.583 18.5137 10.0654 19.0215C9.87988 19.207 9.67969 19.3926 9.46484 19.5781C9.25 19.7539 9.06934 19.9492 8.92285 20.1641C8.78613 20.3594 8.65918 20.5938 8.54199 20.8672C8.4248 21.1309 8.3125 21.375 8.20508 21.5996C7.94141 22.127 7.67773 22.6494 7.41406 23.167C7.15039 23.6846 6.8916 24.207 6.6377 24.7344L9.01074 22.3613C9.20605 22.166 9.43066 22.0146 9.68457 21.9072C9.94824 21.79 10.2217 21.7314 10.5049 21.7314C10.7881 21.7314 11.0566 21.79 11.3105 21.9072C11.5742 22.0146 11.7988 22.166 11.9844 22.3613C12.1797 22.5469 12.3311 22.7715 12.4385 23.0352C12.5557 23.2891 12.6143 23.5576 12.6143 23.8408ZM28.9326 31.7363C28.2881 29.1094 27.6387 26.4971 26.9844 23.8994C26.3398 21.3018 25.6807 18.6895 25.0068 16.0625L20.29 20.7939L25.7686 31.7363H28.9326ZM18.2832 9.33887C15.6562 8.66504 13.0439 8.00586 10.4463 7.36133C7.84863 6.70703 5.23633 6.05762 2.60938 5.41309V8.57715L13.5518 14.0557L18.2832 9.33887ZM4.7041 30.6816C4.99707 30.6816 5.24609 30.5791 5.45117 30.374L11.252 24.5879C11.3594 24.4805 11.4375 24.3584 11.4863 24.2217C11.5352 24.085 11.5596 23.9434 11.5596 23.7969C11.5596 23.6602 11.5303 23.5332 11.4717 23.416C11.4131 23.2891 11.3301 23.1816 11.2227 23.0938C11.125 22.9961 11.0127 22.9229 10.8857 22.874C10.7588 22.8154 10.6318 22.7861 10.5049 22.7861C10.2119 22.7861 9.96289 22.8887 9.75781 23.0938L3.97168 28.8945C3.75684 29.1094 3.64941 29.3633 3.64941 29.6562C3.64941 29.9492 3.75195 30.1934 3.95703 30.3887C4.17188 30.584 4.4209 30.6816 4.7041 30.6816ZM14.1816 31.7363V26.5947L10.4463 28.4697L12.0869 31.7363H14.1816ZM2.60938 22.2588L5.87598 23.8994L7.75098 20.1641H2.60938V22.2588ZM29.9727 7.52246H28.9326L26.8232 5.41309V4.37305C27.2627 4.37305 27.6729 4.45605 28.0537 4.62207C28.4346 4.78809 28.7666 5.0127 29.0498 5.2959C29.333 5.5791 29.5576 5.91113 29.7236 6.29199C29.8896 6.67285 29.9727 7.08301 29.9727 7.52246ZM27.8633 18.2744C27.8633 18.1182 27.8145 17.9912 27.7168 17.8936L26.9697 17.1611C26.8623 17.0537 26.7402 17 26.6035 17C26.5059 17 26.418 17.0244 26.3398 17.0732L26.9404 19.4316L27.7168 18.6406C27.8145 18.543 27.8633 18.4209 27.8633 18.2744ZM16.0713 6.48242C15.9248 6.48242 15.8027 6.53125 15.7051 6.62891L14.9141 7.40527L17.2725 8.00586C17.3213 7.92773 17.3457 7.83984 17.3457 7.74219C17.3457 7.60547 17.292 7.4834 17.1846 7.37598L16.4521 6.62891C16.3545 6.53125 16.2275 6.48242 16.0713 6.48242Z" fill="white"/>
<path d="M43.3398 26.3555V22.6055C44.0195 23.1758 44.7578 23.6055 45.5547 23.8945C46.3516 24.1758 47.1562 24.3164 47.9688 24.3164C48.4453 24.3164 48.8594 24.2734 49.2109 24.1875C49.5703 24.1016 49.8672 23.9844 50.1016 23.8359C50.3438 23.6797 50.5234 23.5 50.6406 23.2969C50.7578 23.0859 50.8164 22.8594 50.8164 22.6172C50.8164 22.2891 50.7227 21.9961 50.5352 21.7383C50.3477 21.4805 50.0898 21.2422 49.7617 21.0234C49.4414 20.8047 49.0586 20.5938 48.6133 20.3906C48.168 20.1875 47.6875 19.9805 47.1719 19.7695C45.8594 19.2227 44.8789 18.5547 44.2305 17.7656C43.5898 16.9766 43.2695 16.0234 43.2695 14.9062C43.2695 14.0312 43.4453 13.2812 43.7969 12.6562C44.1484 12.0234 44.625 11.5039 45.2266 11.0977C45.8359 10.6914 46.5391 10.3945 47.3359 10.207C48.1328 10.0117 48.9766 9.91406 49.8672 9.91406C50.7422 9.91406 51.5156 9.96875 52.1875 10.0781C52.8672 10.1797 53.4922 10.3398 54.0625 10.5586V14.0625C53.7812 13.8672 53.4727 13.6953 53.1367 13.5469C52.8086 13.3984 52.4688 13.2773 52.1172 13.1836C51.7656 13.082 51.4141 13.0078 51.0625 12.9609C50.7188 12.9141 50.3906 12.8906 50.0781 12.8906C49.6484 12.8906 49.2578 12.9336 48.9062 13.0195C48.5547 13.0977 48.2578 13.2109 48.0156 13.3594C47.7734 13.5078 47.5859 13.6875 47.4531 13.8984C47.3203 14.1016 47.2539 14.332 47.2539 14.5898C47.2539 14.8711 47.3281 15.125 47.4766 15.3516C47.625 15.5703 47.8359 15.7812 48.1094 15.9844C48.3828 16.1797 48.7148 16.375 49.1055 16.5703C49.4961 16.7578 49.9375 16.9531 50.4297 17.1562C51.1016 17.4375 51.7031 17.7383 52.2344 18.0586C52.7734 18.3711 53.2344 18.7266 53.6172 19.125C54 19.5234 54.293 19.9805 54.4961 20.4961C54.6992 21.0039 54.8008 21.5977 54.8008 22.2773C54.8008 23.2148 54.6211 24.0039 54.2617 24.6445C53.9102 25.2773 53.4297 25.793 52.8203 26.1914C52.2109 26.582 51.5 26.8633 50.6875 27.0352C49.8828 27.207 49.0312 27.293 48.1328 27.293C47.2109 27.293 46.332 27.2148 45.4961 27.0586C44.668 26.9023 43.9492 26.668 43.3398 26.3555ZM69.2266 27H64.7852L60.9531 21.0469H60.9062V27H57.2031V9.23438H60.9062V20.543H60.9531L64.5273 15H68.9219L64.6211 20.6367L69.2266 27ZM82.0586 15L77.1836 27.9609C76.0117 31.0781 74.2461 32.6367 71.8867 32.6367C70.9883 32.6367 70.25 32.5352 69.6719 32.332V29.3789C70.1641 29.668 70.6992 29.8125 71.2773 29.8125C72.2305 29.8125 72.8945 29.3633 73.2695 28.4648L73.9023 26.9766L69.0273 15H73.1289L75.3672 22.3008C75.5078 22.7539 75.6172 23.2891 75.6953 23.9062H75.7422C75.8125 23.4531 75.9414 22.9258 76.1289 22.3242L78.3906 15H82.0586ZM90.918 20.332C90.918 22.582 90.3945 24.3047 89.3477 25.5C88.3086 26.6953 86.8008 27.293 84.8242 27.293C83.9414 27.293 83.125 27.1406 82.375 26.8359V23.2852C83.0234 23.7773 83.75 24.0234 84.5547 24.0234C86.2812 24.0234 87.1445 22.7422 87.1445 20.1797V10.1953H90.918V20.332ZM105.016 22.0547H97.1875C97.3125 23.7969 98.4102 24.668 100.48 24.668C101.801 24.668 102.961 24.3555 103.961 23.7305V26.4023C102.852 26.9961 101.41 27.293 99.6367 27.293C97.6992 27.293 96.1953 26.7578 95.125 25.6875C94.0547 24.6094 93.5195 23.1094 93.5195 21.1875C93.5195 19.1953 94.0977 17.6172 95.2539 16.4531C96.4102 15.2891 97.832 14.707 99.5195 14.707C101.27 14.707 102.621 15.2266 103.574 16.2656C104.535 17.3047 105.016 18.7148 105.016 20.4961V22.0547ZM101.582 19.7812C101.582 18.0625 100.887 17.2031 99.4961 17.2031C98.9023 17.2031 98.3867 17.4492 97.9492 17.9414C97.5195 18.4336 97.2578 19.0469 97.1641 19.7812H101.582ZM114.473 26.8594C113.926 27.1484 113.102 27.293 112 27.293C109.391 27.293 108.086 25.9375 108.086 23.2266V17.7305H106.141V15H108.086V12.4102L111.777 11.3555V15H114.473V17.7305H111.777V22.582C111.777 23.832 112.273 24.457 113.266 24.457C113.656 24.457 114.059 24.3438 114.473 24.1172V26.8594ZM123.824 26.8594C123.277 27.1484 122.453 27.293 121.352 27.293C118.742 27.293 117.438 25.9375 117.438 23.2266V17.7305H115.492V15H117.438V12.4102L121.129 11.3555V15H123.824V17.7305H121.129V22.582C121.129 23.832 121.625 24.457 122.617 24.457C123.008 24.457 123.41 24.3438 123.824 24.1172V26.8594Z" fill="white"/>
</svg>
